<svg data-v-d3f97b9e="" xmlns="http://www.w3.org/2000/svg" viewBox="0 0 54.31957038650803 60"><!----><!----><!----><!----><g data-v-d3f97b9e="" id="8afd6d86-6de6-4693-8b2b-b83d6eadbe4f" transform="matrix(0.6666570594194114,0,0,0.6666570594194114,-6.164890060878818,-3.4011250545774487)" stroke="none" fill="black"><path d="M90.728 46.002l-1.05-1.047c-.482-.477-.791-.751-.963-.961-1.372-1.627-2.759-3.169-3.943-4.792-.118-.115-.25-.636-.342-1.268.86-.014 1.638-.146 2.324-.226.716-.086 1.39-.211 2.028-.311l1.337-.208s-3.651-2.432-4.656-2.362c.107-.196.215-.387.321-.585.465-.88 1.199-1.863 1.64-3.182.296-.91.449-1.84.449-2.77.001-1.378-.338-2.746-.978-4.042l-.824-1.672-1.259 1.352c-1.202 1.269-2.215 1.843-4.242 2.479-8.107 2.488-15.803 6.015-22.446 11.782-4.897 4.249-8.814 9.37-11.101 15.673-1.037 2.854-1.553 5.675-1.553 8.435-.003 4.9 1.634 9.574 4.667 13.893 1.48 2.114 3.354 3.881 5.756 5.373l4.206 2.618-2.413-4.42c-.226-.414-.309-.575-.423-.773-.673-1.174-1.018-2.31-1.019-3.504 0-.44.048-.89.15-1.362.479-2.186 1.659-3.923 3.347-5.414 1.609-1.417 3.428-2.691 5.263-4.111l1.34-1.038c3.871 1.082 7.74 2.168 11.627 3.206.383.102.917.151 1.293.151 2.48-.006 4.736-2.081 4.736-4.75v-.199c0-1.363.011-2.521.543-3.569.15-.298.204-.473.302-.561.102-.086.132-.135.367-.182.538-.106.879-.328 1.237-.607l.831-.512c.151-.209.72-.464.72-.867v-.009l-.31-.803c-.021-.656-.517-1.857-.676-1.857h-.006c.333 0 .639-.038.911-.385.273-.338.468-.651.46-1.135-.014-.728-.302-1.126-.594-1.585a11.973 11.973 0 0 1-.595-.969c.821-.69 1.605-1.325 2.406-1.998l1.132-.926zm-32.664 20.67c-1.999 1.752-3.579 4.017-4.195 6.864a9.143 9.143 0 0 0-.213 1.949c0 .319.035.629.069.941a16.188 16.188 0 0 1-1.497-1.804c-2.775-3.965-4.172-8.044-4.175-12.324 0-2.416.449-4.909 1.388-7.495 1.649-4.539 4.232-8.408 7.488-11.812l-.646 7.906c-.156 1.916-.365 3.867-.462 5.862l-.008.316c-.03 1.877.928 3.63 2.553 4.58 1.181.716 2.361 1.35 3.508 1.999-1.278.957-2.567 1.926-3.81 3.018zm26.654-19.064l-.853.717-.276.986c.326.584.411 1.389.411 2.189v.004c0 .112.259.241-.319.479l-1.448.787 2.081 1.823c.061.143.234.303.273.409l.061.03a3.118 3.118 0 0 0-1.596.807 4.798 4.798 0 0 0-1.005 1.316C81.239 58.746 81 60.403 81 61.966v.199c0 .581-.17 1.089-.541 1.471-.373.38-.848.606-1.374.606l-.484-.066c-5.094-1.36-10.171-2.78-15.257-4.209-.556-.151-1.206-.497-2.002-.834-.685-.294-1.017-.631-1.282-1.09-.259-.461-.419-1.112-.471-1.951-.104-1.615-.374-3.154-.581-4.631l-.009-.067-.171-.711-1.862-7.729a42.74 42.74 0 0 1 2.82-2.72c6.282-5.453 13.617-8.841 21.519-11.266 1.504-.452 2.735-1.032 3.84-1.843.079.389.141.777.141 1.164 0 .628-.102 1.262-.314 1.917-.241.772-.852 1.652-1.446 2.73-.44.812-.893 1.626-1.345 2.449l-.437.794.258.328c-.142.324-.225.656-.22.947l.028.4c.125.776.156 1.883.898 2.957 1.293 1.769 2.724 3.354 4.057 4.937.025.029.048.049.073.077l-2.12 1.783z"></path><path d="M72.618 85.389c-9.018 5.552-18.654 7.58-28.976 5.381-9.544-2.033-17.23-7.101-22.621-15.602-1.15-1.813-2.025-3.813-3.027-5.727l.275-.173.374.509c1.256 1.693 2.427 3.463 3.783 5.065 7.605 8.988 17.208 13.519 28.761 13.673 4.02.054 7.984-.404 11.901-1.273 2.375-.527 4.713-1.225 7.068-1.846l-.04-.388c-1.629 0-3.258-.014-4.887.002-6.137.061-12.258-.151-18.289-1.447-1.918-.412-3.769-1.215-5.698-1.505-5.729-.862-10.629-3.401-14.715-7.565-6.447-6.571-9.257-14.554-8.151-23.876.765-6.453 3.645-11.896 8.005-16.505 6.549-6.925 14.603-11.18 23.486-13.892 2.087-.637 4.233-1.065 6.352-1.589l.022-.065c-.931.045-1.862.127-2.793.129-4.131.008-8.263-.031-12.395-.007-3.942.023-7.739.809-11.377 2.409-9.034 3.972-15.57 10.422-18.711 20.208A35.64 35.64 0 0 0 9.581 57.1c.448 3.311.951 6.72 2.127 9.801 6.305 16.521 21.72 27.949 39.876 28.198 7.584.104 14.743-1.79 21.406-5.58a42.861 42.861 0 0 0 8.715-6.547c-2.071.516-4.128 1.015-6.177 1.543-.982.253-2.069.357-2.91.874z"></path><path d="M23.886 20.011c2.966-1.598 5.964-3.111 8.867-4.85C44.15 8.336 56.231 6.08 69.106 9.802c1.504.435 2.991.933 4.725 1.477-8.763-5.673-21.797-8.159-34.213-4.354-12.805 3.924-22.017 13.684-25.796 21.835.154-.172.247-.262.324-.365a29.562 29.562 0 0 1 9.74-8.384z"></path></g><!----></svg>